<svg xmlns="http://www.w3.org/2000/svg" viewBox="0 0 1180 760" role="img" aria-labelledby="title desc">
  <title id="title">Kruchten 4+1 视图模型（中文背诵版）</title>
  <desc id="desc">逻辑视图、进程视图、开发视图和物理视图围绕 +1 用例场景；场景用于捕获架构需求并串联多个视图。</desc>
  <defs>
    <marker id="arrow" viewBox="0 0 10 10" refX="8" refY="5" markerWidth="8" markerHeight="8" orient="auto-start-reverse">
      <path d="M 0 0 L 10 5 L 0 10 z" fill="#4f5d75"/>
    </marker>
    <style>
      .bg{fill:#fbfaf7}
      .card{fill:#fff;stroke:#c7d0dc;stroke-width:2.5;rx:18}
      .core{fill:#f6eadf;stroke:#c5533d;stroke-width:3}
      .title{font:700 34px -apple-system,BlinkMacSystemFont,"Segoe UI",sans-serif;fill:#1f2733}
      .label{font:700 25px -apple-system,BlinkMacSystemFont,"Segoe UI",sans-serif;fill:#1f2733}
      .en{font:600 18px -apple-system,BlinkMacSystemFont,"Segoe UI",sans-serif;fill:#c5533d}
      .body{font:18px -apple-system,BlinkMacSystemFont,"Segoe UI",sans-serif;fill:#4f5d75}
      .note{font:16px -apple-system,BlinkMacSystemFont,"Segoe UI",sans-serif;fill:#6b7686}
      .line{stroke:#4f5d75;stroke-width:2.2;fill:none;marker-end:url(#arrow)}
    </style>
  </defs>
  <rect class="bg" width="1180" height="760"/>
  <text class="title" x="590" y="70" text-anchor="middle">P. Kruchten 4+1 视图模型</text>
  <text class="note" x="590" y="105" text-anchor="middle">Use cases / scenarios 捕获架构需求，并检查多个 view 之间是否一致。</text>

  <rect class="card" x="90" y="145" width="420" height="185"/>
  <text class="label" x="125" y="190">逻辑视图</text>
  <text class="en" x="125" y="220">Logical view</text>
  <text class="body" x="125" y="258">关注架构重要元素</text>
  <text class="body" x="125" y="286">以及它们之间的关系。</text>

  <rect class="card" x="670" y="145" width="420" height="185"/>
  <text class="label" x="705" y="190">进程视图</text>
  <text class="en" x="705" y="220">Process view</text>
  <text class="body" x="705" y="258">关注并发、运行时进程、</text>
  <text class="body" x="705" y="286">线程与通信。</text>

  <rect class="card" x="90" y="455" width="420" height="185"/>
  <text class="label" x="125" y="500">开发视图</text>
  <text class="en" x="125" y="530">Development view</text>
  <text class="body" x="125" y="568">关注软件组件、包、制品</text>
  <text class="body" x="125" y="596">在开发视角下的组织。</text>

  <rect class="card" x="670" y="455" width="420" height="185"/>
  <text class="label" x="705" y="500">物理视图</text>
  <text class="en" x="705" y="530">Physical view</text>
  <text class="body" x="705" y="568">关注主要进程/组件如何映射</text>
  <text class="body" x="705" y="596">到硬件与部署环境。</text>

  <circle class="core" cx="590" cy="380" r="105"/>
  <text class="label" x="590" y="365" text-anchor="middle">+1</text>
  <text class="en" x="590" y="398" text-anchor="middle">用例场景</text>
  <text class="note" x="590" y="426" text-anchor="middle">验证并串联四个视图</text>

  <path class="line" d="M 510 238 C 555 250 575 280 585 300"/>
  <path class="line" d="M 670 238 C 625 250 605 280 595 300"/>
  <path class="line" d="M 510 548 C 555 520 575 488 585 462"/>
  <path class="line" d="M 670 548 C 625 520 605 488 595 462"/>

  <text class="note" x="590" y="710" text-anchor="middle">复习关键词：不同 stakeholder 看不同 view；用 scenario 检查视图之间是否一致。</text>
</svg>
